<mxfile host="app.diagrams.net" agent="Mozilla/5.0 (Windows NT 10.0; Win64; x64) AppleWebKit/537.36 (KHTML, like Gecko) Chrome/131.0.0.0 Safari/537.36" version="25.0.0">
  <diagram name="Page-1" id="skQ6Bqla_CH4Cx-famLH">
    <mxGraphModel dx="784" dy="404" grid="1" gridSize="10" guides="1" tooltips="1" connect="1" arrows="1" fold="1" page="1" pageScale="1" pageWidth="850" pageHeight="1100" math="0" shadow="0">
      <root>
        <mxCell id="0" />
        <mxCell id="1" parent="0" />
        <mxCell id="QPa2e-_EbMcNQabbTF7_-1" value="Line_buffer_0" style="rounded=0;whiteSpace=wrap;html=1;" parent="1" vertex="1">
          <mxGeometry x="230" y="360" width="120" height="40" as="geometry" />
        </mxCell>
        <mxCell id="QPa2e-_EbMcNQabbTF7_-2" value="Line_buffer_1" style="rounded=0;whiteSpace=wrap;html=1;" parent="1" vertex="1">
          <mxGeometry x="230" y="440" width="120" height="40" as="geometry" />
        </mxCell>
        <mxCell id="QPa2e-_EbMcNQabbTF7_-40" value="d48" style="rounded=0;whiteSpace=wrap;html=1;" parent="1" vertex="1">
          <mxGeometry x="400" y="360" width="40" height="40" as="geometry" />
        </mxCell>
        <mxCell id="QPa2e-_EbMcNQabbTF7_-41" value="" style="endArrow=classic;html=1;rounded=0;exitX=1;exitY=0.5;exitDx=0;exitDy=0;" parent="1" source="QPa2e-_EbMcNQabbTF7_-40" edge="1">
          <mxGeometry width="50" height="50" relative="1" as="geometry">
            <mxPoint x="460" y="380" as="sourcePoint" />
            <mxPoint x="480" y="380" as="targetPoint" />
          </mxGeometry>
        </mxCell>
        <mxCell id="QPa2e-_EbMcNQabbTF7_-45" value="" style="endArrow=classic;html=1;rounded=0;exitX=1;exitY=0.5;exitDx=0;exitDy=0;entryX=0;entryY=0.5;entryDx=0;entryDy=0;" parent="1" source="QPa2e-_EbMcNQabbTF7_-1" target="QPa2e-_EbMcNQabbTF7_-40" edge="1">
          <mxGeometry width="50" height="50" relative="1" as="geometry">
            <mxPoint x="600" y="510" as="sourcePoint" />
            <mxPoint x="650" y="460" as="targetPoint" />
          </mxGeometry>
        </mxCell>
        <mxCell id="QPa2e-_EbMcNQabbTF7_-53" value="Line_buffer_2" style="rounded=0;whiteSpace=wrap;html=1;" parent="1" vertex="1">
          <mxGeometry x="230" y="520" width="120" height="40" as="geometry" />
        </mxCell>
        <mxCell id="QPa2e-_EbMcNQabbTF7_-60" value="Line_buffer_3" style="rounded=0;whiteSpace=wrap;html=1;" parent="1" vertex="1">
          <mxGeometry x="230" y="600" width="120" height="40" as="geometry" />
        </mxCell>
        <mxCell id="QPa2e-_EbMcNQabbTF7_-74" value="Line_buffer_4" style="rounded=0;whiteSpace=wrap;html=1;" parent="1" vertex="1">
          <mxGeometry x="230" y="680" width="120" height="40" as="geometry" />
        </mxCell>
        <mxCell id="QPa2e-_EbMcNQabbTF7_-81" value="Line_buffer_5" style="rounded=0;whiteSpace=wrap;html=1;" parent="1" vertex="1">
          <mxGeometry x="230" y="760" width="120" height="40" as="geometry" />
        </mxCell>
        <mxCell id="QPa2e-_EbMcNQabbTF7_-88" value="Line_buffer_6" style="rounded=0;whiteSpace=wrap;html=1;" parent="1" vertex="1">
          <mxGeometry x="230" y="840" width="120" height="40" as="geometry" />
        </mxCell>
        <mxCell id="QPa2e-_EbMcNQabbTF7_-102" value="d47" style="rounded=0;whiteSpace=wrap;html=1;" parent="1" vertex="1">
          <mxGeometry x="480" y="360" width="40" height="40" as="geometry" />
        </mxCell>
        <mxCell id="QPa2e-_EbMcNQabbTF7_-103" value="" style="endArrow=classic;html=1;rounded=0;exitX=1;exitY=0.5;exitDx=0;exitDy=0;" parent="1" edge="1">
          <mxGeometry width="50" height="50" relative="1" as="geometry">
            <mxPoint x="520" y="380" as="sourcePoint" />
            <mxPoint x="560" y="380" as="targetPoint" />
          </mxGeometry>
        </mxCell>
        <mxCell id="QPa2e-_EbMcNQabbTF7_-104" value="d46" style="rounded=0;whiteSpace=wrap;html=1;" parent="1" vertex="1">
          <mxGeometry x="560" y="360" width="40" height="40" as="geometry" />
        </mxCell>
        <mxCell id="QPa2e-_EbMcNQabbTF7_-107" value="" style="endArrow=classic;html=1;rounded=0;exitX=1;exitY=0.5;exitDx=0;exitDy=0;" parent="1" edge="1">
          <mxGeometry width="50" height="50" relative="1" as="geometry">
            <mxPoint x="600" y="380" as="sourcePoint" />
            <mxPoint x="640" y="380" as="targetPoint" />
          </mxGeometry>
        </mxCell>
        <mxCell id="QPa2e-_EbMcNQabbTF7_-108" value="d45" style="rounded=0;whiteSpace=wrap;html=1;" parent="1" vertex="1">
          <mxGeometry x="640" y="360" width="40" height="40" as="geometry" />
        </mxCell>
        <mxCell id="QPa2e-_EbMcNQabbTF7_-109" value="" style="endArrow=classic;html=1;rounded=0;exitX=1;exitY=0.5;exitDx=0;exitDy=0;" parent="1" edge="1">
          <mxGeometry width="50" height="50" relative="1" as="geometry">
            <mxPoint x="680" y="380" as="sourcePoint" />
            <mxPoint x="720" y="380" as="targetPoint" />
          </mxGeometry>
        </mxCell>
        <mxCell id="QPa2e-_EbMcNQabbTF7_-110" value="d44" style="rounded=0;whiteSpace=wrap;html=1;" parent="1" vertex="1">
          <mxGeometry x="720" y="360" width="40" height="40" as="geometry" />
        </mxCell>
        <mxCell id="QPa2e-_EbMcNQabbTF7_-111" value="" style="endArrow=classic;html=1;rounded=0;exitX=1;exitY=0.5;exitDx=0;exitDy=0;" parent="1" edge="1">
          <mxGeometry width="50" height="50" relative="1" as="geometry">
            <mxPoint x="760" y="380" as="sourcePoint" />
            <mxPoint x="800" y="380" as="targetPoint" />
          </mxGeometry>
        </mxCell>
        <mxCell id="QPa2e-_EbMcNQabbTF7_-112" value="d43" style="rounded=0;whiteSpace=wrap;html=1;" parent="1" vertex="1">
          <mxGeometry x="800" y="360" width="40" height="40" as="geometry" />
        </mxCell>
        <mxCell id="QPa2e-_EbMcNQabbTF7_-113" value="" style="endArrow=classic;html=1;rounded=0;exitX=1;exitY=0.5;exitDx=0;exitDy=0;" parent="1" edge="1">
          <mxGeometry width="50" height="50" relative="1" as="geometry">
            <mxPoint x="840" y="380" as="sourcePoint" />
            <mxPoint x="880" y="380" as="targetPoint" />
          </mxGeometry>
        </mxCell>
        <mxCell id="QPa2e-_EbMcNQabbTF7_-114" value="d42" style="rounded=0;whiteSpace=wrap;html=1;" parent="1" vertex="1">
          <mxGeometry x="880" y="360" width="40" height="40" as="geometry" />
        </mxCell>
        <mxCell id="QPa2e-_EbMcNQabbTF7_-117" value="d41" style="rounded=0;whiteSpace=wrap;html=1;" parent="1" vertex="1">
          <mxGeometry x="400" y="440" width="40" height="40" as="geometry" />
        </mxCell>
        <mxCell id="QPa2e-_EbMcNQabbTF7_-118" value="" style="endArrow=classic;html=1;rounded=0;exitX=1;exitY=0.5;exitDx=0;exitDy=0;" parent="1" source="QPa2e-_EbMcNQabbTF7_-117" edge="1">
          <mxGeometry width="50" height="50" relative="1" as="geometry">
            <mxPoint x="460" y="460" as="sourcePoint" />
            <mxPoint x="480" y="460" as="targetPoint" />
          </mxGeometry>
        </mxCell>
        <mxCell id="QPa2e-_EbMcNQabbTF7_-119" value="" style="endArrow=classic;html=1;rounded=0;exitX=1;exitY=0.5;exitDx=0;exitDy=0;entryX=0;entryY=0.5;entryDx=0;entryDy=0;" parent="1" target="QPa2e-_EbMcNQabbTF7_-117" edge="1">
          <mxGeometry width="50" height="50" relative="1" as="geometry">
            <mxPoint x="350" y="460" as="sourcePoint" />
            <mxPoint x="650" y="540" as="targetPoint" />
          </mxGeometry>
        </mxCell>
        <mxCell id="QPa2e-_EbMcNQabbTF7_-120" value="d40" style="rounded=0;whiteSpace=wrap;html=1;" parent="1" vertex="1">
          <mxGeometry x="480" y="440" width="40" height="40" as="geometry" />
        </mxCell>
        <mxCell id="QPa2e-_EbMcNQabbTF7_-121" value="" style="endArrow=classic;html=1;rounded=0;exitX=1;exitY=0.5;exitDx=0;exitDy=0;" parent="1" edge="1">
          <mxGeometry width="50" height="50" relative="1" as="geometry">
            <mxPoint x="520" y="460" as="sourcePoint" />
            <mxPoint x="560" y="460" as="targetPoint" />
          </mxGeometry>
        </mxCell>
        <mxCell id="QPa2e-_EbMcNQabbTF7_-122" value="d39" style="rounded=0;whiteSpace=wrap;html=1;" parent="1" vertex="1">
          <mxGeometry x="560" y="440" width="40" height="40" as="geometry" />
        </mxCell>
        <mxCell id="QPa2e-_EbMcNQabbTF7_-123" value="" style="endArrow=classic;html=1;rounded=0;exitX=1;exitY=0.5;exitDx=0;exitDy=0;" parent="1" edge="1">
          <mxGeometry width="50" height="50" relative="1" as="geometry">
            <mxPoint x="600" y="460" as="sourcePoint" />
            <mxPoint x="640" y="460" as="targetPoint" />
          </mxGeometry>
        </mxCell>
        <mxCell id="QPa2e-_EbMcNQabbTF7_-124" value="d38" style="rounded=0;whiteSpace=wrap;html=1;" parent="1" vertex="1">
          <mxGeometry x="640" y="440" width="40" height="40" as="geometry" />
        </mxCell>
        <mxCell id="QPa2e-_EbMcNQabbTF7_-125" value="" style="endArrow=classic;html=1;rounded=0;exitX=1;exitY=0.5;exitDx=0;exitDy=0;" parent="1" edge="1">
          <mxGeometry width="50" height="50" relative="1" as="geometry">
            <mxPoint x="680" y="460" as="sourcePoint" />
            <mxPoint x="720" y="460" as="targetPoint" />
          </mxGeometry>
        </mxCell>
        <mxCell id="QPa2e-_EbMcNQabbTF7_-126" value="d37" style="rounded=0;whiteSpace=wrap;html=1;" parent="1" vertex="1">
          <mxGeometry x="720" y="440" width="40" height="40" as="geometry" />
        </mxCell>
        <mxCell id="QPa2e-_EbMcNQabbTF7_-127" value="" style="endArrow=classic;html=1;rounded=0;exitX=1;exitY=0.5;exitDx=0;exitDy=0;" parent="1" edge="1">
          <mxGeometry width="50" height="50" relative="1" as="geometry">
            <mxPoint x="760" y="460" as="sourcePoint" />
            <mxPoint x="800" y="460" as="targetPoint" />
          </mxGeometry>
        </mxCell>
        <mxCell id="QPa2e-_EbMcNQabbTF7_-128" value="d36" style="rounded=0;whiteSpace=wrap;html=1;" parent="1" vertex="1">
          <mxGeometry x="800" y="440" width="40" height="40" as="geometry" />
        </mxCell>
        <mxCell id="QPa2e-_EbMcNQabbTF7_-129" value="" style="endArrow=classic;html=1;rounded=0;exitX=1;exitY=0.5;exitDx=0;exitDy=0;" parent="1" edge="1">
          <mxGeometry width="50" height="50" relative="1" as="geometry">
            <mxPoint x="840" y="460" as="sourcePoint" />
            <mxPoint x="880" y="460" as="targetPoint" />
          </mxGeometry>
        </mxCell>
        <mxCell id="QPa2e-_EbMcNQabbTF7_-130" value="d35" style="rounded=0;whiteSpace=wrap;html=1;" parent="1" vertex="1">
          <mxGeometry x="880" y="440" width="40" height="40" as="geometry" />
        </mxCell>
        <mxCell id="QPa2e-_EbMcNQabbTF7_-131" value="d34" style="rounded=0;whiteSpace=wrap;html=1;" parent="1" vertex="1">
          <mxGeometry x="400" y="520" width="40" height="40" as="geometry" />
        </mxCell>
        <mxCell id="QPa2e-_EbMcNQabbTF7_-132" value="" style="endArrow=classic;html=1;rounded=0;exitX=1;exitY=0.5;exitDx=0;exitDy=0;" parent="1" source="QPa2e-_EbMcNQabbTF7_-131" edge="1">
          <mxGeometry width="50" height="50" relative="1" as="geometry">
            <mxPoint x="460" y="540" as="sourcePoint" />
            <mxPoint x="480" y="540" as="targetPoint" />
          </mxGeometry>
        </mxCell>
        <mxCell id="QPa2e-_EbMcNQabbTF7_-133" value="" style="endArrow=classic;html=1;rounded=0;exitX=1;exitY=0.5;exitDx=0;exitDy=0;entryX=0;entryY=0.5;entryDx=0;entryDy=0;" parent="1" target="QPa2e-_EbMcNQabbTF7_-131" edge="1">
          <mxGeometry width="50" height="50" relative="1" as="geometry">
            <mxPoint x="350" y="540" as="sourcePoint" />
            <mxPoint x="650" y="620" as="targetPoint" />
          </mxGeometry>
        </mxCell>
        <mxCell id="QPa2e-_EbMcNQabbTF7_-134" value="d33" style="rounded=0;whiteSpace=wrap;html=1;" parent="1" vertex="1">
          <mxGeometry x="480" y="520" width="40" height="40" as="geometry" />
        </mxCell>
        <mxCell id="QPa2e-_EbMcNQabbTF7_-135" value="" style="endArrow=classic;html=1;rounded=0;exitX=1;exitY=0.5;exitDx=0;exitDy=0;" parent="1" edge="1">
          <mxGeometry width="50" height="50" relative="1" as="geometry">
            <mxPoint x="520" y="540" as="sourcePoint" />
            <mxPoint x="560" y="540" as="targetPoint" />
          </mxGeometry>
        </mxCell>
        <mxCell id="QPa2e-_EbMcNQabbTF7_-136" value="d32" style="rounded=0;whiteSpace=wrap;html=1;" parent="1" vertex="1">
          <mxGeometry x="560" y="520" width="40" height="40" as="geometry" />
        </mxCell>
        <mxCell id="QPa2e-_EbMcNQabbTF7_-137" value="" style="endArrow=classic;html=1;rounded=0;exitX=1;exitY=0.5;exitDx=0;exitDy=0;" parent="1" edge="1">
          <mxGeometry width="50" height="50" relative="1" as="geometry">
            <mxPoint x="600" y="540" as="sourcePoint" />
            <mxPoint x="640" y="540" as="targetPoint" />
          </mxGeometry>
        </mxCell>
        <mxCell id="QPa2e-_EbMcNQabbTF7_-138" value="d31" style="rounded=0;whiteSpace=wrap;html=1;" parent="1" vertex="1">
          <mxGeometry x="640" y="520" width="40" height="40" as="geometry" />
        </mxCell>
        <mxCell id="QPa2e-_EbMcNQabbTF7_-139" value="" style="endArrow=classic;html=1;rounded=0;exitX=1;exitY=0.5;exitDx=0;exitDy=0;" parent="1" edge="1">
          <mxGeometry width="50" height="50" relative="1" as="geometry">
            <mxPoint x="680" y="540" as="sourcePoint" />
            <mxPoint x="720" y="540" as="targetPoint" />
          </mxGeometry>
        </mxCell>
        <mxCell id="QPa2e-_EbMcNQabbTF7_-140" value="d30" style="rounded=0;whiteSpace=wrap;html=1;" parent="1" vertex="1">
          <mxGeometry x="720" y="520" width="40" height="40" as="geometry" />
        </mxCell>
        <mxCell id="QPa2e-_EbMcNQabbTF7_-141" value="" style="endArrow=classic;html=1;rounded=0;exitX=1;exitY=0.5;exitDx=0;exitDy=0;" parent="1" edge="1">
          <mxGeometry width="50" height="50" relative="1" as="geometry">
            <mxPoint x="760" y="540" as="sourcePoint" />
            <mxPoint x="800" y="540" as="targetPoint" />
          </mxGeometry>
        </mxCell>
        <mxCell id="QPa2e-_EbMcNQabbTF7_-142" value="d29" style="rounded=0;whiteSpace=wrap;html=1;" parent="1" vertex="1">
          <mxGeometry x="800" y="520" width="40" height="40" as="geometry" />
        </mxCell>
        <mxCell id="QPa2e-_EbMcNQabbTF7_-143" value="" style="endArrow=classic;html=1;rounded=0;exitX=1;exitY=0.5;exitDx=0;exitDy=0;" parent="1" edge="1">
          <mxGeometry width="50" height="50" relative="1" as="geometry">
            <mxPoint x="840" y="540" as="sourcePoint" />
            <mxPoint x="880" y="540" as="targetPoint" />
          </mxGeometry>
        </mxCell>
        <mxCell id="QPa2e-_EbMcNQabbTF7_-144" value="d28" style="rounded=0;whiteSpace=wrap;html=1;" parent="1" vertex="1">
          <mxGeometry x="880" y="520" width="40" height="40" as="geometry" />
        </mxCell>
        <mxCell id="QPa2e-_EbMcNQabbTF7_-145" value="d27" style="rounded=0;whiteSpace=wrap;html=1;" parent="1" vertex="1">
          <mxGeometry x="400" y="600" width="40" height="40" as="geometry" />
        </mxCell>
        <mxCell id="QPa2e-_EbMcNQabbTF7_-146" value="" style="endArrow=classic;html=1;rounded=0;exitX=1;exitY=0.5;exitDx=0;exitDy=0;" parent="1" source="QPa2e-_EbMcNQabbTF7_-145" edge="1">
          <mxGeometry width="50" height="50" relative="1" as="geometry">
            <mxPoint x="460" y="620" as="sourcePoint" />
            <mxPoint x="480" y="620" as="targetPoint" />
          </mxGeometry>
        </mxCell>
        <mxCell id="QPa2e-_EbMcNQabbTF7_-147" value="" style="endArrow=classic;html=1;rounded=0;exitX=1;exitY=0.5;exitDx=0;exitDy=0;entryX=0;entryY=0.5;entryDx=0;entryDy=0;" parent="1" target="QPa2e-_EbMcNQabbTF7_-145" edge="1">
          <mxGeometry width="50" height="50" relative="1" as="geometry">
            <mxPoint x="350" y="620" as="sourcePoint" />
            <mxPoint x="650" y="700" as="targetPoint" />
          </mxGeometry>
        </mxCell>
        <mxCell id="QPa2e-_EbMcNQabbTF7_-148" value="d26" style="rounded=0;whiteSpace=wrap;html=1;" parent="1" vertex="1">
          <mxGeometry x="480" y="600" width="40" height="40" as="geometry" />
        </mxCell>
        <mxCell id="QPa2e-_EbMcNQabbTF7_-149" value="" style="endArrow=classic;html=1;rounded=0;exitX=1;exitY=0.5;exitDx=0;exitDy=0;" parent="1" edge="1">
          <mxGeometry width="50" height="50" relative="1" as="geometry">
            <mxPoint x="520" y="620" as="sourcePoint" />
            <mxPoint x="560" y="620" as="targetPoint" />
          </mxGeometry>
        </mxCell>
        <mxCell id="QPa2e-_EbMcNQabbTF7_-150" value="d25" style="rounded=0;whiteSpace=wrap;html=1;" parent="1" vertex="1">
          <mxGeometry x="560" y="600" width="40" height="40" as="geometry" />
        </mxCell>
        <mxCell id="QPa2e-_EbMcNQabbTF7_-151" value="" style="endArrow=classic;html=1;rounded=0;exitX=1;exitY=0.5;exitDx=0;exitDy=0;" parent="1" edge="1">
          <mxGeometry width="50" height="50" relative="1" as="geometry">
            <mxPoint x="600" y="620" as="sourcePoint" />
            <mxPoint x="640" y="620" as="targetPoint" />
          </mxGeometry>
        </mxCell>
        <mxCell id="QPa2e-_EbMcNQabbTF7_-152" value="d24" style="rounded=0;whiteSpace=wrap;html=1;" parent="1" vertex="1">
          <mxGeometry x="640" y="600" width="40" height="40" as="geometry" />
        </mxCell>
        <mxCell id="QPa2e-_EbMcNQabbTF7_-153" value="" style="endArrow=classic;html=1;rounded=0;exitX=1;exitY=0.5;exitDx=0;exitDy=0;" parent="1" edge="1">
          <mxGeometry width="50" height="50" relative="1" as="geometry">
            <mxPoint x="680" y="620" as="sourcePoint" />
            <mxPoint x="720" y="620" as="targetPoint" />
          </mxGeometry>
        </mxCell>
        <mxCell id="QPa2e-_EbMcNQabbTF7_-154" value="d23" style="rounded=0;whiteSpace=wrap;html=1;" parent="1" vertex="1">
          <mxGeometry x="720" y="600" width="40" height="40" as="geometry" />
        </mxCell>
        <mxCell id="QPa2e-_EbMcNQabbTF7_-155" value="" style="endArrow=classic;html=1;rounded=0;exitX=1;exitY=0.5;exitDx=0;exitDy=0;" parent="1" edge="1">
          <mxGeometry width="50" height="50" relative="1" as="geometry">
            <mxPoint x="760" y="620" as="sourcePoint" />
            <mxPoint x="800" y="620" as="targetPoint" />
          </mxGeometry>
        </mxCell>
        <mxCell id="QPa2e-_EbMcNQabbTF7_-156" value="d22" style="rounded=0;whiteSpace=wrap;html=1;" parent="1" vertex="1">
          <mxGeometry x="800" y="600" width="40" height="40" as="geometry" />
        </mxCell>
        <mxCell id="QPa2e-_EbMcNQabbTF7_-157" value="" style="endArrow=classic;html=1;rounded=0;exitX=1;exitY=0.5;exitDx=0;exitDy=0;" parent="1" edge="1">
          <mxGeometry width="50" height="50" relative="1" as="geometry">
            <mxPoint x="840" y="620" as="sourcePoint" />
            <mxPoint x="880" y="620" as="targetPoint" />
          </mxGeometry>
        </mxCell>
        <mxCell id="QPa2e-_EbMcNQabbTF7_-158" value="d21" style="rounded=0;whiteSpace=wrap;html=1;" parent="1" vertex="1">
          <mxGeometry x="880" y="600" width="40" height="40" as="geometry" />
        </mxCell>
        <mxCell id="QPa2e-_EbMcNQabbTF7_-159" value="d20" style="rounded=0;whiteSpace=wrap;html=1;" parent="1" vertex="1">
          <mxGeometry x="400" y="680" width="40" height="40" as="geometry" />
        </mxCell>
        <mxCell id="QPa2e-_EbMcNQabbTF7_-160" value="" style="endArrow=classic;html=1;rounded=0;exitX=1;exitY=0.5;exitDx=0;exitDy=0;" parent="1" source="QPa2e-_EbMcNQabbTF7_-159" edge="1">
          <mxGeometry width="50" height="50" relative="1" as="geometry">
            <mxPoint x="460" y="700" as="sourcePoint" />
            <mxPoint x="480" y="700" as="targetPoint" />
          </mxGeometry>
        </mxCell>
        <mxCell id="QPa2e-_EbMcNQabbTF7_-161" value="" style="endArrow=classic;html=1;rounded=0;exitX=1;exitY=0.5;exitDx=0;exitDy=0;entryX=0;entryY=0.5;entryDx=0;entryDy=0;" parent="1" target="QPa2e-_EbMcNQabbTF7_-159" edge="1">
          <mxGeometry width="50" height="50" relative="1" as="geometry">
            <mxPoint x="350" y="700" as="sourcePoint" />
            <mxPoint x="650" y="780" as="targetPoint" />
          </mxGeometry>
        </mxCell>
        <mxCell id="QPa2e-_EbMcNQabbTF7_-162" value="d19" style="rounded=0;whiteSpace=wrap;html=1;" parent="1" vertex="1">
          <mxGeometry x="480" y="680" width="40" height="40" as="geometry" />
        </mxCell>
        <mxCell id="QPa2e-_EbMcNQabbTF7_-163" value="" style="endArrow=classic;html=1;rounded=0;exitX=1;exitY=0.5;exitDx=0;exitDy=0;" parent="1" edge="1">
          <mxGeometry width="50" height="50" relative="1" as="geometry">
            <mxPoint x="520" y="700" as="sourcePoint" />
            <mxPoint x="560" y="700" as="targetPoint" />
          </mxGeometry>
        </mxCell>
        <mxCell id="QPa2e-_EbMcNQabbTF7_-164" value="d18" style="rounded=0;whiteSpace=wrap;html=1;" parent="1" vertex="1">
          <mxGeometry x="560" y="680" width="40" height="40" as="geometry" />
        </mxCell>
        <mxCell id="QPa2e-_EbMcNQabbTF7_-165" value="" style="endArrow=classic;html=1;rounded=0;exitX=1;exitY=0.5;exitDx=0;exitDy=0;" parent="1" edge="1">
          <mxGeometry width="50" height="50" relative="1" as="geometry">
            <mxPoint x="600" y="700" as="sourcePoint" />
            <mxPoint x="640" y="700" as="targetPoint" />
          </mxGeometry>
        </mxCell>
        <mxCell id="QPa2e-_EbMcNQabbTF7_-166" value="d17" style="rounded=0;whiteSpace=wrap;html=1;" parent="1" vertex="1">
          <mxGeometry x="640" y="680" width="40" height="40" as="geometry" />
        </mxCell>
        <mxCell id="QPa2e-_EbMcNQabbTF7_-167" value="" style="endArrow=classic;html=1;rounded=0;exitX=1;exitY=0.5;exitDx=0;exitDy=0;" parent="1" edge="1">
          <mxGeometry width="50" height="50" relative="1" as="geometry">
            <mxPoint x="680" y="700" as="sourcePoint" />
            <mxPoint x="720" y="700" as="targetPoint" />
          </mxGeometry>
        </mxCell>
        <mxCell id="QPa2e-_EbMcNQabbTF7_-168" value="d16" style="rounded=0;whiteSpace=wrap;html=1;" parent="1" vertex="1">
          <mxGeometry x="720" y="680" width="40" height="40" as="geometry" />
        </mxCell>
        <mxCell id="QPa2e-_EbMcNQabbTF7_-169" value="" style="endArrow=classic;html=1;rounded=0;exitX=1;exitY=0.5;exitDx=0;exitDy=0;" parent="1" edge="1">
          <mxGeometry width="50" height="50" relative="1" as="geometry">
            <mxPoint x="760" y="700" as="sourcePoint" />
            <mxPoint x="800" y="700" as="targetPoint" />
          </mxGeometry>
        </mxCell>
        <mxCell id="QPa2e-_EbMcNQabbTF7_-170" value="d15" style="rounded=0;whiteSpace=wrap;html=1;" parent="1" vertex="1">
          <mxGeometry x="800" y="680" width="40" height="40" as="geometry" />
        </mxCell>
        <mxCell id="QPa2e-_EbMcNQabbTF7_-171" value="" style="endArrow=classic;html=1;rounded=0;exitX=1;exitY=0.5;exitDx=0;exitDy=0;" parent="1" edge="1">
          <mxGeometry width="50" height="50" relative="1" as="geometry">
            <mxPoint x="840" y="700" as="sourcePoint" />
            <mxPoint x="880" y="700" as="targetPoint" />
          </mxGeometry>
        </mxCell>
        <mxCell id="QPa2e-_EbMcNQabbTF7_-172" value="d14" style="rounded=0;whiteSpace=wrap;html=1;" parent="1" vertex="1">
          <mxGeometry x="880" y="680" width="40" height="40" as="geometry" />
        </mxCell>
        <mxCell id="QPa2e-_EbMcNQabbTF7_-173" value="d13" style="rounded=0;whiteSpace=wrap;html=1;" parent="1" vertex="1">
          <mxGeometry x="400" y="760" width="40" height="40" as="geometry" />
        </mxCell>
        <mxCell id="QPa2e-_EbMcNQabbTF7_-174" value="" style="endArrow=classic;html=1;rounded=0;exitX=1;exitY=0.5;exitDx=0;exitDy=0;" parent="1" source="QPa2e-_EbMcNQabbTF7_-173" edge="1">
          <mxGeometry width="50" height="50" relative="1" as="geometry">
            <mxPoint x="460" y="780" as="sourcePoint" />
            <mxPoint x="480" y="780" as="targetPoint" />
          </mxGeometry>
        </mxCell>
        <mxCell id="QPa2e-_EbMcNQabbTF7_-175" value="" style="endArrow=classic;html=1;rounded=0;exitX=1;exitY=0.5;exitDx=0;exitDy=0;entryX=0;entryY=0.5;entryDx=0;entryDy=0;" parent="1" target="QPa2e-_EbMcNQabbTF7_-173" edge="1">
          <mxGeometry width="50" height="50" relative="1" as="geometry">
            <mxPoint x="350" y="780" as="sourcePoint" />
            <mxPoint x="650" y="860" as="targetPoint" />
          </mxGeometry>
        </mxCell>
        <mxCell id="QPa2e-_EbMcNQabbTF7_-176" value="d12" style="rounded=0;whiteSpace=wrap;html=1;" parent="1" vertex="1">
          <mxGeometry x="480" y="760" width="40" height="40" as="geometry" />
        </mxCell>
        <mxCell id="QPa2e-_EbMcNQabbTF7_-177" value="" style="endArrow=classic;html=1;rounded=0;exitX=1;exitY=0.5;exitDx=0;exitDy=0;" parent="1" edge="1">
          <mxGeometry width="50" height="50" relative="1" as="geometry">
            <mxPoint x="520" y="780" as="sourcePoint" />
            <mxPoint x="560" y="780" as="targetPoint" />
          </mxGeometry>
        </mxCell>
        <mxCell id="QPa2e-_EbMcNQabbTF7_-178" value="d11" style="rounded=0;whiteSpace=wrap;html=1;" parent="1" vertex="1">
          <mxGeometry x="560" y="760" width="40" height="40" as="geometry" />
        </mxCell>
        <mxCell id="QPa2e-_EbMcNQabbTF7_-179" value="" style="endArrow=classic;html=1;rounded=0;exitX=1;exitY=0.5;exitDx=0;exitDy=0;" parent="1" edge="1">
          <mxGeometry width="50" height="50" relative="1" as="geometry">
            <mxPoint x="600" y="780" as="sourcePoint" />
            <mxPoint x="640" y="780" as="targetPoint" />
          </mxGeometry>
        </mxCell>
        <mxCell id="QPa2e-_EbMcNQabbTF7_-180" value="d10" style="rounded=0;whiteSpace=wrap;html=1;" parent="1" vertex="1">
          <mxGeometry x="640" y="760" width="40" height="40" as="geometry" />
        </mxCell>
        <mxCell id="QPa2e-_EbMcNQabbTF7_-181" value="" style="endArrow=classic;html=1;rounded=0;exitX=1;exitY=0.5;exitDx=0;exitDy=0;" parent="1" edge="1">
          <mxGeometry width="50" height="50" relative="1" as="geometry">
            <mxPoint x="680" y="780" as="sourcePoint" />
            <mxPoint x="720" y="780" as="targetPoint" />
          </mxGeometry>
        </mxCell>
        <mxCell id="QPa2e-_EbMcNQabbTF7_-182" value="d9" style="rounded=0;whiteSpace=wrap;html=1;" parent="1" vertex="1">
          <mxGeometry x="720" y="760" width="40" height="40" as="geometry" />
        </mxCell>
        <mxCell id="QPa2e-_EbMcNQabbTF7_-183" value="" style="endArrow=classic;html=1;rounded=0;exitX=1;exitY=0.5;exitDx=0;exitDy=0;" parent="1" edge="1">
          <mxGeometry width="50" height="50" relative="1" as="geometry">
            <mxPoint x="760" y="780" as="sourcePoint" />
            <mxPoint x="800" y="780" as="targetPoint" />
          </mxGeometry>
        </mxCell>
        <mxCell id="QPa2e-_EbMcNQabbTF7_-184" value="d8" style="rounded=0;whiteSpace=wrap;html=1;" parent="1" vertex="1">
          <mxGeometry x="800" y="760" width="40" height="40" as="geometry" />
        </mxCell>
        <mxCell id="QPa2e-_EbMcNQabbTF7_-185" value="" style="endArrow=classic;html=1;rounded=0;exitX=1;exitY=0.5;exitDx=0;exitDy=0;" parent="1" edge="1">
          <mxGeometry width="50" height="50" relative="1" as="geometry">
            <mxPoint x="840" y="780" as="sourcePoint" />
            <mxPoint x="880" y="780" as="targetPoint" />
          </mxGeometry>
        </mxCell>
        <mxCell id="QPa2e-_EbMcNQabbTF7_-186" value="d7" style="rounded=0;whiteSpace=wrap;html=1;" parent="1" vertex="1">
          <mxGeometry x="880" y="760" width="40" height="40" as="geometry" />
        </mxCell>
        <mxCell id="QPa2e-_EbMcNQabbTF7_-187" value="d6" style="rounded=0;whiteSpace=wrap;html=1;" parent="1" vertex="1">
          <mxGeometry x="400" y="840" width="40" height="40" as="geometry" />
        </mxCell>
        <mxCell id="QPa2e-_EbMcNQabbTF7_-188" value="" style="endArrow=classic;html=1;rounded=0;exitX=1;exitY=0.5;exitDx=0;exitDy=0;" parent="1" source="QPa2e-_EbMcNQabbTF7_-187" edge="1">
          <mxGeometry width="50" height="50" relative="1" as="geometry">
            <mxPoint x="460" y="860" as="sourcePoint" />
            <mxPoint x="480" y="860" as="targetPoint" />
          </mxGeometry>
        </mxCell>
        <mxCell id="QPa2e-_EbMcNQabbTF7_-189" value="" style="endArrow=classic;html=1;rounded=0;exitX=1;exitY=0.5;exitDx=0;exitDy=0;entryX=0;entryY=0.5;entryDx=0;entryDy=0;" parent="1" target="QPa2e-_EbMcNQabbTF7_-187" edge="1">
          <mxGeometry width="50" height="50" relative="1" as="geometry">
            <mxPoint x="350" y="860" as="sourcePoint" />
            <mxPoint x="650" y="940" as="targetPoint" />
          </mxGeometry>
        </mxCell>
        <mxCell id="QPa2e-_EbMcNQabbTF7_-190" value="d5" style="rounded=0;whiteSpace=wrap;html=1;" parent="1" vertex="1">
          <mxGeometry x="480" y="840" width="40" height="40" as="geometry" />
        </mxCell>
        <mxCell id="QPa2e-_EbMcNQabbTF7_-191" value="" style="endArrow=classic;html=1;rounded=0;exitX=1;exitY=0.5;exitDx=0;exitDy=0;" parent="1" edge="1">
          <mxGeometry width="50" height="50" relative="1" as="geometry">
            <mxPoint x="520" y="860" as="sourcePoint" />
            <mxPoint x="560" y="860" as="targetPoint" />
          </mxGeometry>
        </mxCell>
        <mxCell id="QPa2e-_EbMcNQabbTF7_-192" value="d4" style="rounded=0;whiteSpace=wrap;html=1;" parent="1" vertex="1">
          <mxGeometry x="560" y="840" width="40" height="40" as="geometry" />
        </mxCell>
        <mxCell id="QPa2e-_EbMcNQabbTF7_-193" value="" style="endArrow=classic;html=1;rounded=0;exitX=1;exitY=0.5;exitDx=0;exitDy=0;" parent="1" edge="1">
          <mxGeometry width="50" height="50" relative="1" as="geometry">
            <mxPoint x="600" y="860" as="sourcePoint" />
            <mxPoint x="640" y="860" as="targetPoint" />
          </mxGeometry>
        </mxCell>
        <mxCell id="QPa2e-_EbMcNQabbTF7_-194" value="d3" style="rounded=0;whiteSpace=wrap;html=1;" parent="1" vertex="1">
          <mxGeometry x="640" y="840" width="40" height="40" as="geometry" />
        </mxCell>
        <mxCell id="QPa2e-_EbMcNQabbTF7_-195" value="" style="endArrow=classic;html=1;rounded=0;exitX=1;exitY=0.5;exitDx=0;exitDy=0;" parent="1" edge="1">
          <mxGeometry width="50" height="50" relative="1" as="geometry">
            <mxPoint x="680" y="860" as="sourcePoint" />
            <mxPoint x="720" y="860" as="targetPoint" />
          </mxGeometry>
        </mxCell>
        <mxCell id="QPa2e-_EbMcNQabbTF7_-196" value="d2" style="rounded=0;whiteSpace=wrap;html=1;" parent="1" vertex="1">
          <mxGeometry x="720" y="840" width="40" height="40" as="geometry" />
        </mxCell>
        <mxCell id="QPa2e-_EbMcNQabbTF7_-197" value="" style="endArrow=classic;html=1;rounded=0;exitX=1;exitY=0.5;exitDx=0;exitDy=0;" parent="1" edge="1">
          <mxGeometry width="50" height="50" relative="1" as="geometry">
            <mxPoint x="760" y="860" as="sourcePoint" />
            <mxPoint x="800" y="860" as="targetPoint" />
          </mxGeometry>
        </mxCell>
        <mxCell id="QPa2e-_EbMcNQabbTF7_-198" value="d1" style="rounded=0;whiteSpace=wrap;html=1;" parent="1" vertex="1">
          <mxGeometry x="800" y="840" width="40" height="40" as="geometry" />
        </mxCell>
        <mxCell id="QPa2e-_EbMcNQabbTF7_-199" value="" style="endArrow=classic;html=1;rounded=0;exitX=1;exitY=0.5;exitDx=0;exitDy=0;" parent="1" edge="1">
          <mxGeometry width="50" height="50" relative="1" as="geometry">
            <mxPoint x="840" y="860" as="sourcePoint" />
            <mxPoint x="880" y="860" as="targetPoint" />
          </mxGeometry>
        </mxCell>
        <mxCell id="QPa2e-_EbMcNQabbTF7_-200" value="d1" style="rounded=0;whiteSpace=wrap;html=1;" parent="1" vertex="1">
          <mxGeometry x="880" y="840" width="40" height="40" as="geometry" />
        </mxCell>
        <mxCell id="9oq79Bdc62THOU5HDjCZ-1" value="d0" style="rounded=0;whiteSpace=wrap;html=1;container=0;fillColor=#fff2cc;strokeColor=#d6b656;" parent="1" vertex="1">
          <mxGeometry x="1010" y="380" width="40" height="40" as="geometry" />
        </mxCell>
        <mxCell id="9oq79Bdc62THOU5HDjCZ-2" value="d1" style="rounded=0;whiteSpace=wrap;html=1;container=0;fillColor=#fff2cc;strokeColor=#d6b656;" parent="1" vertex="1">
          <mxGeometry x="1050" y="380" width="40" height="40" as="geometry" />
        </mxCell>
        <mxCell id="9oq79Bdc62THOU5HDjCZ-3" value="d2" style="rounded=0;whiteSpace=wrap;html=1;container=0;fillColor=#dae8fc;strokeColor=#6c8ebf;" parent="1" vertex="1">
          <mxGeometry x="1090" y="380" width="40" height="40" as="geometry" />
        </mxCell>
        <mxCell id="9oq79Bdc62THOU5HDjCZ-4" value="d3" style="rounded=0;whiteSpace=wrap;html=1;container=0;fillColor=#dae8fc;strokeColor=#6c8ebf;" parent="1" vertex="1">
          <mxGeometry x="1130" y="380" width="40" height="40" as="geometry" />
        </mxCell>
        <mxCell id="9oq79Bdc62THOU5HDjCZ-5" value="d4" style="rounded=0;whiteSpace=wrap;html=1;container=0;fillColor=#dae8fc;strokeColor=#6c8ebf;" parent="1" vertex="1">
          <mxGeometry x="1170" y="380" width="40" height="40" as="geometry" />
        </mxCell>
        <mxCell id="9oq79Bdc62THOU5HDjCZ-6" value="d5" style="rounded=0;whiteSpace=wrap;html=1;container=0;" parent="1" vertex="1">
          <mxGeometry x="1210" y="380" width="40" height="40" as="geometry" />
        </mxCell>
        <mxCell id="9oq79Bdc62THOU5HDjCZ-7" value="d6" style="rounded=0;whiteSpace=wrap;html=1;container=0;" parent="1" vertex="1">
          <mxGeometry x="1250" y="380" width="40" height="40" as="geometry" />
        </mxCell>
        <mxCell id="9oq79Bdc62THOU5HDjCZ-10" value="d7" style="rounded=0;whiteSpace=wrap;html=1;container=0;fillColor=#dae8fc;strokeColor=#6c8ebf;" parent="1" vertex="1">
          <mxGeometry x="1010" y="420" width="40" height="40" as="geometry" />
        </mxCell>
        <mxCell id="9oq79Bdc62THOU5HDjCZ-11" value="d8" style="rounded=0;whiteSpace=wrap;html=1;container=0;fillColor=#dae8fc;strokeColor=#6c8ebf;" parent="1" vertex="1">
          <mxGeometry x="1050" y="420" width="40" height="40" as="geometry" />
        </mxCell>
        <mxCell id="9oq79Bdc62THOU5HDjCZ-12" value="d9" style="rounded=0;whiteSpace=wrap;html=1;container=0;fillColor=#dae8fc;strokeColor=#6c8ebf;" parent="1" vertex="1">
          <mxGeometry x="1090" y="420" width="40" height="40" as="geometry" />
        </mxCell>
        <mxCell id="9oq79Bdc62THOU5HDjCZ-13" value="d10" style="rounded=0;whiteSpace=wrap;html=1;container=0;fillColor=#dae8fc;strokeColor=#6c8ebf;" parent="1" vertex="1">
          <mxGeometry x="1130" y="420" width="40" height="40" as="geometry" />
        </mxCell>
        <mxCell id="9oq79Bdc62THOU5HDjCZ-14" value="d11" style="rounded=0;whiteSpace=wrap;html=1;container=0;fillColor=#cce5ff;strokeColor=#36393d;" parent="1" vertex="1">
          <mxGeometry x="1170" y="420" width="40" height="40" as="geometry" />
        </mxCell>
        <mxCell id="9oq79Bdc62THOU5HDjCZ-15" value="d12" style="rounded=0;whiteSpace=wrap;html=1;container=0;" parent="1" vertex="1">
          <mxGeometry x="1210" y="420" width="40" height="40" as="geometry" />
        </mxCell>
        <mxCell id="9oq79Bdc62THOU5HDjCZ-16" value="d13" style="rounded=0;whiteSpace=wrap;html=1;container=0;" parent="1" vertex="1">
          <mxGeometry x="1250" y="420" width="40" height="40" as="geometry" />
        </mxCell>
        <mxCell id="9oq79Bdc62THOU5HDjCZ-19" value="d14" style="rounded=0;whiteSpace=wrap;html=1;container=0;fillColor=#dae8fc;strokeColor=#6c8ebf;" parent="1" vertex="1">
          <mxGeometry x="1010" y="460" width="40" height="40" as="geometry" />
        </mxCell>
        <mxCell id="9oq79Bdc62THOU5HDjCZ-20" value="d15" style="rounded=0;whiteSpace=wrap;html=1;container=0;fillColor=#dae8fc;strokeColor=#6c8ebf;" parent="1" vertex="1">
          <mxGeometry x="1050" y="460" width="40" height="40" as="geometry" />
        </mxCell>
        <mxCell id="9oq79Bdc62THOU5HDjCZ-21" value="d16" style="rounded=0;whiteSpace=wrap;html=1;container=0;fillColor=#cce5ff;strokeColor=#36393d;" parent="1" vertex="1">
          <mxGeometry x="1090" y="460" width="40" height="40" as="geometry" />
        </mxCell>
        <mxCell id="9oq79Bdc62THOU5HDjCZ-22" value="d17" style="rounded=0;whiteSpace=wrap;html=1;container=0;fillColor=#cce5ff;strokeColor=#36393d;" parent="1" vertex="1">
          <mxGeometry x="1130" y="460" width="40" height="40" as="geometry" />
        </mxCell>
        <mxCell id="9oq79Bdc62THOU5HDjCZ-23" value="d18" style="rounded=0;whiteSpace=wrap;html=1;container=0;fillColor=#ffff88;strokeColor=#36393d;" parent="1" vertex="1">
          <mxGeometry x="1170" y="460" width="40" height="40" as="geometry" />
        </mxCell>
        <mxCell id="9oq79Bdc62THOU5HDjCZ-24" value="d19" style="rounded=0;whiteSpace=wrap;html=1;container=0;fillColor=#ffff88;strokeColor=#36393d;" parent="1" vertex="1">
          <mxGeometry x="1210" y="460" width="40" height="40" as="geometry" />
        </mxCell>
        <mxCell id="9oq79Bdc62THOU5HDjCZ-25" value="d20" style="rounded=0;whiteSpace=wrap;html=1;container=0;fillColor=#ffff88;strokeColor=#36393d;" parent="1" vertex="1">
          <mxGeometry x="1250" y="460" width="40" height="40" as="geometry" />
        </mxCell>
        <mxCell id="9oq79Bdc62THOU5HDjCZ-28" value="d21" style="rounded=0;whiteSpace=wrap;html=1;container=0;fillColor=#dae8fc;strokeColor=#6c8ebf;" parent="1" vertex="1">
          <mxGeometry x="1010" y="500" width="40" height="40" as="geometry" />
        </mxCell>
        <mxCell id="9oq79Bdc62THOU5HDjCZ-29" value="d22" style="rounded=0;whiteSpace=wrap;html=1;container=0;fillColor=#cce5ff;strokeColor=#36393d;" parent="1" vertex="1">
          <mxGeometry x="1050" y="500" width="40" height="40" as="geometry" />
        </mxCell>
        <mxCell id="9oq79Bdc62THOU5HDjCZ-30" value="d23" style="rounded=0;whiteSpace=wrap;html=1;container=0;fillColor=#ffff88;strokeColor=#36393d;" parent="1" vertex="1">
          <mxGeometry x="1090" y="500" width="40" height="40" as="geometry" />
        </mxCell>
        <mxCell id="9oq79Bdc62THOU5HDjCZ-31" value="d24" style="rounded=0;whiteSpace=wrap;html=1;container=0;fillColor=#ffff88;strokeColor=#36393d;" parent="1" vertex="1">
          <mxGeometry x="1130" y="500" width="40" height="40" as="geometry" />
        </mxCell>
        <mxCell id="9oq79Bdc62THOU5HDjCZ-32" value="d25" style="rounded=0;whiteSpace=wrap;html=1;container=0;fillColor=#ffff88;strokeColor=#36393d;" parent="1" vertex="1">
          <mxGeometry x="1170" y="500" width="40" height="40" as="geometry" />
        </mxCell>
        <mxCell id="9oq79Bdc62THOU5HDjCZ-33" value="d26" style="rounded=0;whiteSpace=wrap;html=1;container=0;fillColor=#cce5ff;strokeColor=#36393d;" parent="1" vertex="1">
          <mxGeometry x="1210" y="500" width="40" height="40" as="geometry" />
        </mxCell>
        <mxCell id="9oq79Bdc62THOU5HDjCZ-34" value="d27" style="rounded=0;whiteSpace=wrap;html=1;container=0;fillColor=#dae8fc;strokeColor=#6c8ebf;" parent="1" vertex="1">
          <mxGeometry x="1250" y="500" width="40" height="40" as="geometry" />
        </mxCell>
        <mxCell id="9oq79Bdc62THOU5HDjCZ-37" value="d28" style="rounded=0;whiteSpace=wrap;html=1;container=0;fillColor=#ffff88;strokeColor=#36393d;" parent="1" vertex="1">
          <mxGeometry x="1010" y="540" width="40" height="40" as="geometry" />
        </mxCell>
        <mxCell id="9oq79Bdc62THOU5HDjCZ-38" value="d29" style="rounded=0;whiteSpace=wrap;html=1;container=0;fillColor=#ffff88;strokeColor=#36393d;" parent="1" vertex="1">
          <mxGeometry x="1050" y="540" width="40" height="40" as="geometry" />
        </mxCell>
        <mxCell id="9oq79Bdc62THOU5HDjCZ-39" value="d30" style="rounded=0;whiteSpace=wrap;html=1;container=0;fillColor=#ffff88;strokeColor=#36393d;" parent="1" vertex="1">
          <mxGeometry x="1090" y="540" width="40" height="40" as="geometry" />
        </mxCell>
        <mxCell id="9oq79Bdc62THOU5HDjCZ-40" value="d31" style="rounded=0;whiteSpace=wrap;html=1;container=0;fillColor=#ffff88;strokeColor=#36393d;" parent="1" vertex="1">
          <mxGeometry x="1130" y="540" width="40" height="40" as="geometry" />
        </mxCell>
        <mxCell id="9oq79Bdc62THOU5HDjCZ-41" value="d32" style="rounded=0;whiteSpace=wrap;html=1;container=0;fillColor=#cce5ff;strokeColor=#36393d;" parent="1" vertex="1">
          <mxGeometry x="1170" y="540" width="40" height="40" as="geometry" />
        </mxCell>
        <mxCell id="9oq79Bdc62THOU5HDjCZ-42" value="d33" style="rounded=0;whiteSpace=wrap;html=1;container=0;fillColor=#dae8fc;strokeColor=#6c8ebf;" parent="1" vertex="1">
          <mxGeometry x="1210" y="540" width="40" height="40" as="geometry" />
        </mxCell>
        <mxCell id="9oq79Bdc62THOU5HDjCZ-43" value="d34" style="rounded=0;whiteSpace=wrap;html=1;container=0;fillColor=#dae8fc;strokeColor=#6c8ebf;" parent="1" vertex="1">
          <mxGeometry x="1250" y="540" width="40" height="40" as="geometry" />
        </mxCell>
        <mxCell id="9oq79Bdc62THOU5HDjCZ-46" value="d35" style="rounded=0;whiteSpace=wrap;html=1;container=0;fillColor=#dae8fc;strokeColor=#6c8ebf;" parent="1" vertex="1">
          <mxGeometry x="1010" y="580" width="40" height="40" as="geometry" />
        </mxCell>
        <mxCell id="9oq79Bdc62THOU5HDjCZ-47" value="d36" style="rounded=0;whiteSpace=wrap;html=1;container=0;fillColor=#dae8fc;strokeColor=#6c8ebf;" parent="1" vertex="1">
          <mxGeometry x="1050" y="580" width="40" height="40" as="geometry" />
        </mxCell>
        <mxCell id="9oq79Bdc62THOU5HDjCZ-48" value="d37" style="rounded=0;whiteSpace=wrap;html=1;container=0;fillColor=#dae8fc;strokeColor=#6c8ebf;" parent="1" vertex="1">
          <mxGeometry x="1090" y="580" width="40" height="40" as="geometry" />
        </mxCell>
        <mxCell id="9oq79Bdc62THOU5HDjCZ-49" value="d38" style="rounded=0;whiteSpace=wrap;html=1;container=0;fillColor=#cce5ff;strokeColor=#36393d;" parent="1" vertex="1">
          <mxGeometry x="1130" y="580" width="40" height="40" as="geometry" />
        </mxCell>
        <mxCell id="9oq79Bdc62THOU5HDjCZ-50" value="d39" style="rounded=0;whiteSpace=wrap;html=1;container=0;fillColor=#fff2cc;strokeColor=#d6b656;" parent="1" vertex="1">
          <mxGeometry x="1170" y="580" width="40" height="40" as="geometry" />
        </mxCell>
        <mxCell id="9oq79Bdc62THOU5HDjCZ-51" value="d40" style="rounded=0;whiteSpace=wrap;html=1;container=0;fillColor=#dae8fc;strokeColor=#6c8ebf;" parent="1" vertex="1">
          <mxGeometry x="1210" y="580" width="40" height="40" as="geometry" />
        </mxCell>
        <mxCell id="9oq79Bdc62THOU5HDjCZ-52" value="d41" style="rounded=0;whiteSpace=wrap;html=1;container=0;fillColor=#fff2cc;strokeColor=#d6b656;" parent="1" vertex="1">
          <mxGeometry x="1250" y="580" width="40" height="40" as="geometry" />
        </mxCell>
        <mxCell id="9oq79Bdc62THOU5HDjCZ-55" value="d42" style="rounded=0;whiteSpace=wrap;html=1;container=0;fillColor=#dae8fc;strokeColor=#6c8ebf;" parent="1" vertex="1">
          <mxGeometry x="1010" y="620" width="40" height="40" as="geometry" />
        </mxCell>
        <mxCell id="9oq79Bdc62THOU5HDjCZ-56" value="d43" style="rounded=0;whiteSpace=wrap;html=1;container=0;fillColor=#dae8fc;strokeColor=#6c8ebf;" parent="1" vertex="1">
          <mxGeometry x="1050" y="620" width="40" height="40" as="geometry" />
        </mxCell>
        <mxCell id="9oq79Bdc62THOU5HDjCZ-57" value="d44" style="rounded=0;whiteSpace=wrap;html=1;container=0;fillColor=#cce5ff;strokeColor=#36393d;" parent="1" vertex="1">
          <mxGeometry x="1090" y="620" width="40" height="40" as="geometry" />
        </mxCell>
        <mxCell id="9oq79Bdc62THOU5HDjCZ-58" value="d45" style="rounded=0;whiteSpace=wrap;html=1;container=0;fillColor=#fff2cc;strokeColor=#d6b656;" parent="1" vertex="1">
          <mxGeometry x="1130" y="620" width="40" height="40" as="geometry" />
        </mxCell>
        <mxCell id="9oq79Bdc62THOU5HDjCZ-59" value="d46" style="rounded=0;whiteSpace=wrap;html=1;container=0;fillColor=#fff2cc;strokeColor=#d6b656;" parent="1" vertex="1">
          <mxGeometry x="1170" y="620" width="40" height="40" as="geometry" />
        </mxCell>
        <mxCell id="9oq79Bdc62THOU5HDjCZ-60" value="d47" style="rounded=0;whiteSpace=wrap;html=1;container=0;fillColor=#fff2cc;strokeColor=#d6b656;" parent="1" vertex="1">
          <mxGeometry x="1210" y="620" width="40" height="40" as="geometry" />
        </mxCell>
        <mxCell id="9oq79Bdc62THOU5HDjCZ-61" value="d48" style="rounded=0;whiteSpace=wrap;html=1;container=0;fillColor=#fff2cc;strokeColor=#d6b656;" parent="1" vertex="1">
          <mxGeometry x="1250" y="620" width="40" height="40" as="geometry" />
        </mxCell>
        <mxCell id="A3wXZoz36PBpPaF0VSKz-1" value="d10" style="rounded=0;whiteSpace=wrap;html=1;container=0;" vertex="1" parent="1">
          <mxGeometry x="1130" y="420" width="40" height="40" as="geometry" />
        </mxCell>
        <mxCell id="A3wXZoz36PBpPaF0VSKz-2" value="d4" style="rounded=0;whiteSpace=wrap;html=1;container=0;fillColor=#cce5ff;strokeColor=#36393d;" vertex="1" parent="1">
          <mxGeometry x="1170" y="380" width="40" height="40" as="geometry" />
        </mxCell>
        <mxCell id="A3wXZoz36PBpPaF0VSKz-5" value="d5" style="rounded=0;whiteSpace=wrap;html=1;container=0;" vertex="1" parent="1">
          <mxGeometry x="1210" y="380" width="40" height="40" as="geometry" />
        </mxCell>
        <mxCell id="A3wXZoz36PBpPaF0VSKz-6" value="d6" style="rounded=0;whiteSpace=wrap;html=1;container=0;" vertex="1" parent="1">
          <mxGeometry x="1250" y="380" width="40" height="40" as="geometry" />
        </mxCell>
        <mxCell id="A3wXZoz36PBpPaF0VSKz-7" value="d27" style="rounded=0;whiteSpace=wrap;html=1;container=0;fillColor=#fff2cc;strokeColor=#d6b656;" vertex="1" parent="1">
          <mxGeometry x="1250" y="500" width="40" height="40" as="geometry" />
        </mxCell>
        <mxCell id="A3wXZoz36PBpPaF0VSKz-8" value="d34" style="rounded=0;whiteSpace=wrap;html=1;container=0;fillColor=#fff2cc;strokeColor=#d6b656;" vertex="1" parent="1">
          <mxGeometry x="1250" y="540" width="40" height="40" as="geometry" />
        </mxCell>
        <mxCell id="A3wXZoz36PBpPaF0VSKz-9" value="d33" style="rounded=0;whiteSpace=wrap;html=1;container=0;fillColor=#fff2cc;strokeColor=#d6b656;" vertex="1" parent="1">
          <mxGeometry x="1210" y="540" width="40" height="40" as="geometry" />
        </mxCell>
        <mxCell id="A3wXZoz36PBpPaF0VSKz-10" value="d40" style="rounded=0;whiteSpace=wrap;html=1;container=0;fillColor=#fff2cc;strokeColor=#d6b656;" vertex="1" parent="1">
          <mxGeometry x="1210" y="580" width="40" height="40" as="geometry" />
        </mxCell>
        <mxCell id="A3wXZoz36PBpPaF0VSKz-11" value="d48" style="rounded=0;whiteSpace=wrap;html=1;container=0;fillColor=#fff2cc;strokeColor=#d6b656;" vertex="1" parent="1">
          <mxGeometry x="1250" y="620" width="40" height="40" as="geometry" />
        </mxCell>
        <mxCell id="A3wXZoz36PBpPaF0VSKz-12" value="d41" style="rounded=0;whiteSpace=wrap;html=1;container=0;fillColor=#fff2cc;strokeColor=#d6b656;" vertex="1" parent="1">
          <mxGeometry x="1250" y="580" width="40" height="40" as="geometry" />
        </mxCell>
        <mxCell id="A3wXZoz36PBpPaF0VSKz-13" value="d34" style="rounded=0;whiteSpace=wrap;html=1;container=0;fillColor=#fff2cc;strokeColor=#d6b656;" vertex="1" parent="1">
          <mxGeometry x="1250" y="540" width="40" height="40" as="geometry" />
        </mxCell>
        <mxCell id="A3wXZoz36PBpPaF0VSKz-14" value="d27" style="rounded=0;whiteSpace=wrap;html=1;container=0;fillColor=#fff2cc;strokeColor=#d6b656;" vertex="1" parent="1">
          <mxGeometry x="1250" y="500" width="40" height="40" as="geometry" />
        </mxCell>
        <mxCell id="A3wXZoz36PBpPaF0VSKz-15" value="d33" style="rounded=0;whiteSpace=wrap;html=1;container=0;fillColor=#fff2cc;strokeColor=#d6b656;" vertex="1" parent="1">
          <mxGeometry x="1210" y="540" width="40" height="40" as="geometry" />
        </mxCell>
        <mxCell id="A3wXZoz36PBpPaF0VSKz-16" value="d40" style="rounded=0;whiteSpace=wrap;html=1;container=0;fillColor=#fff2cc;strokeColor=#d6b656;" vertex="1" parent="1">
          <mxGeometry x="1210" y="580" width="40" height="40" as="geometry" />
        </mxCell>
        <mxCell id="A3wXZoz36PBpPaF0VSKz-17" value="d47" style="rounded=0;whiteSpace=wrap;html=1;container=0;fillColor=#fff2cc;strokeColor=#d6b656;" vertex="1" parent="1">
          <mxGeometry x="1210" y="620" width="40" height="40" as="geometry" />
        </mxCell>
        <mxCell id="A3wXZoz36PBpPaF0VSKz-18" value="d46" style="rounded=0;whiteSpace=wrap;html=1;container=0;fillColor=#fff2cc;strokeColor=#d6b656;" vertex="1" parent="1">
          <mxGeometry x="1170" y="620" width="40" height="40" as="geometry" />
        </mxCell>
        <mxCell id="A3wXZoz36PBpPaF0VSKz-19" value="d39" style="rounded=0;whiteSpace=wrap;html=1;container=0;fillColor=#fff2cc;strokeColor=#d6b656;" vertex="1" parent="1">
          <mxGeometry x="1170" y="580" width="40" height="40" as="geometry" />
        </mxCell>
        <mxCell id="A3wXZoz36PBpPaF0VSKz-20" value="d45" style="rounded=0;whiteSpace=wrap;html=1;container=0;fillColor=#fff2cc;strokeColor=#d6b656;" vertex="1" parent="1">
          <mxGeometry x="1130" y="620" width="40" height="40" as="geometry" />
        </mxCell>
        <mxCell id="A3wXZoz36PBpPaF0VSKz-21" value="d21" style="rounded=0;whiteSpace=wrap;html=1;container=0;fillColor=#dae8fc;strokeColor=#6c8ebf;" vertex="1" parent="1">
          <mxGeometry x="1010" y="500" width="40" height="40" as="geometry" />
        </mxCell>
        <mxCell id="A3wXZoz36PBpPaF0VSKz-22" value="d14" style="rounded=0;whiteSpace=wrap;html=1;container=0;fillColor=#dae8fc;strokeColor=#6c8ebf;" vertex="1" parent="1">
          <mxGeometry x="1010" y="460" width="40" height="40" as="geometry" />
        </mxCell>
        <mxCell id="A3wXZoz36PBpPaF0VSKz-23" value="d15" style="rounded=0;whiteSpace=wrap;html=1;container=0;fillColor=#dae8fc;strokeColor=#6c8ebf;" vertex="1" parent="1">
          <mxGeometry x="1050" y="460" width="40" height="40" as="geometry" />
        </mxCell>
        <mxCell id="A3wXZoz36PBpPaF0VSKz-24" value="d7" style="rounded=0;whiteSpace=wrap;html=1;container=0;fillColor=#dae8fc;strokeColor=#6c8ebf;" vertex="1" parent="1">
          <mxGeometry x="1010" y="420" width="40" height="40" as="geometry" />
        </mxCell>
        <mxCell id="A3wXZoz36PBpPaF0VSKz-25" value="d8" style="rounded=0;whiteSpace=wrap;html=1;container=0;fillColor=#dae8fc;strokeColor=#6c8ebf;" vertex="1" parent="1">
          <mxGeometry x="1050" y="420" width="40" height="40" as="geometry" />
        </mxCell>
        <mxCell id="A3wXZoz36PBpPaF0VSKz-26" value="d9" style="rounded=0;whiteSpace=wrap;html=1;container=0;fillColor=#dae8fc;strokeColor=#6c8ebf;" vertex="1" parent="1">
          <mxGeometry x="1090" y="420" width="40" height="40" as="geometry" />
        </mxCell>
        <mxCell id="A3wXZoz36PBpPaF0VSKz-27" value="d48" style="rounded=0;whiteSpace=wrap;html=1;container=0;fillColor=#fff2cc;strokeColor=#d6b656;" vertex="1" parent="1">
          <mxGeometry x="1250" y="620" width="40" height="40" as="geometry" />
        </mxCell>
        <mxCell id="A3wXZoz36PBpPaF0VSKz-28" value="d41" style="rounded=0;whiteSpace=wrap;html=1;container=0;fillColor=#fff2cc;strokeColor=#d6b656;" vertex="1" parent="1">
          <mxGeometry x="1250" y="580" width="40" height="40" as="geometry" />
        </mxCell>
        <mxCell id="A3wXZoz36PBpPaF0VSKz-29" value="d34" style="rounded=0;whiteSpace=wrap;html=1;container=0;fillColor=#fff2cc;strokeColor=#d6b656;" vertex="1" parent="1">
          <mxGeometry x="1250" y="540" width="40" height="40" as="geometry" />
        </mxCell>
        <mxCell id="A3wXZoz36PBpPaF0VSKz-30" value="d27" style="rounded=0;whiteSpace=wrap;html=1;container=0;fillColor=#ffff88;strokeColor=#36393d;" vertex="1" parent="1">
          <mxGeometry x="1250" y="500" width="40" height="40" as="geometry" />
        </mxCell>
        <mxCell id="A3wXZoz36PBpPaF0VSKz-31" value="d33" style="rounded=0;whiteSpace=wrap;html=1;container=0;fillColor=#fff2cc;strokeColor=#d6b656;" vertex="1" parent="1">
          <mxGeometry x="1210" y="540" width="40" height="40" as="geometry" />
        </mxCell>
        <mxCell id="A3wXZoz36PBpPaF0VSKz-32" value="d40" style="rounded=0;whiteSpace=wrap;html=1;container=0;fillColor=#fff2cc;strokeColor=#d6b656;" vertex="1" parent="1">
          <mxGeometry x="1210" y="580" width="40" height="40" as="geometry" />
        </mxCell>
        <mxCell id="A3wXZoz36PBpPaF0VSKz-33" value="d47" style="rounded=0;whiteSpace=wrap;html=1;container=0;fillColor=#fff2cc;strokeColor=#d6b656;" vertex="1" parent="1">
          <mxGeometry x="1210" y="620" width="40" height="40" as="geometry" />
        </mxCell>
        <mxCell id="A3wXZoz36PBpPaF0VSKz-34" value="d46" style="rounded=0;whiteSpace=wrap;html=1;container=0;fillColor=#fff2cc;strokeColor=#d6b656;" vertex="1" parent="1">
          <mxGeometry x="1170" y="620" width="40" height="40" as="geometry" />
        </mxCell>
        <mxCell id="A3wXZoz36PBpPaF0VSKz-35" value="d39" style="rounded=0;whiteSpace=wrap;html=1;container=0;fillColor=#fff2cc;strokeColor=#d6b656;" vertex="1" parent="1">
          <mxGeometry x="1170" y="580" width="40" height="40" as="geometry" />
        </mxCell>
        <mxCell id="A3wXZoz36PBpPaF0VSKz-36" value="d45" style="rounded=0;whiteSpace=wrap;html=1;container=0;fillColor=#fff2cc;strokeColor=#d6b656;" vertex="1" parent="1">
          <mxGeometry x="1130" y="620" width="40" height="40" as="geometry" />
        </mxCell>
        <mxCell id="A3wXZoz36PBpPaF0VSKz-37" value="d21" style="rounded=0;whiteSpace=wrap;html=1;container=0;fillColor=#fff2cc;strokeColor=#d6b656;" vertex="1" parent="1">
          <mxGeometry x="1010" y="500" width="40" height="40" as="geometry" />
        </mxCell>
        <mxCell id="A3wXZoz36PBpPaF0VSKz-38" value="d14" style="rounded=0;whiteSpace=wrap;html=1;container=0;fillColor=#fff2cc;strokeColor=#d6b656;" vertex="1" parent="1">
          <mxGeometry x="1010" y="460" width="40" height="40" as="geometry" />
        </mxCell>
        <mxCell id="A3wXZoz36PBpPaF0VSKz-39" value="d15" style="rounded=0;whiteSpace=wrap;html=1;container=0;fillColor=#fff2cc;strokeColor=#d6b656;" vertex="1" parent="1">
          <mxGeometry x="1050" y="460" width="40" height="40" as="geometry" />
        </mxCell>
        <mxCell id="A3wXZoz36PBpPaF0VSKz-40" value="d7" style="rounded=0;whiteSpace=wrap;html=1;container=0;fillColor=#fff2cc;strokeColor=#d6b656;" vertex="1" parent="1">
          <mxGeometry x="1010" y="420" width="40" height="40" as="geometry" />
        </mxCell>
        <mxCell id="A3wXZoz36PBpPaF0VSKz-41" value="d8" style="rounded=0;whiteSpace=wrap;html=1;container=0;fillColor=#fff2cc;strokeColor=#d6b656;" vertex="1" parent="1">
          <mxGeometry x="1050" y="420" width="40" height="40" as="geometry" />
        </mxCell>
        <mxCell id="A3wXZoz36PBpPaF0VSKz-42" value="d9" style="rounded=0;whiteSpace=wrap;html=1;container=0;fillColor=#fff2cc;strokeColor=#d6b656;" vertex="1" parent="1">
          <mxGeometry x="1090" y="420" width="40" height="40" as="geometry" />
        </mxCell>
        <mxCell id="A3wXZoz36PBpPaF0VSKz-43" value="d2" style="rounded=0;whiteSpace=wrap;html=1;container=0;fillColor=#fff2cc;strokeColor=#d6b656;" vertex="1" parent="1">
          <mxGeometry x="1090" y="380" width="40" height="40" as="geometry" />
        </mxCell>
        <mxCell id="A3wXZoz36PBpPaF0VSKz-44" value="d3" style="rounded=0;whiteSpace=wrap;html=1;container=0;fillColor=#fff2cc;strokeColor=#d6b656;" vertex="1" parent="1">
          <mxGeometry x="1130" y="380" width="40" height="40" as="geometry" />
        </mxCell>
        <mxCell id="A3wXZoz36PBpPaF0VSKz-45" value="d43" style="rounded=0;whiteSpace=wrap;html=1;container=0;fillColor=#cce5ff;strokeColor=#36393d;" vertex="1" parent="1">
          <mxGeometry x="1050" y="620" width="40" height="40" as="geometry" />
        </mxCell>
        <mxCell id="A3wXZoz36PBpPaF0VSKz-46" value="d42" style="rounded=0;whiteSpace=wrap;html=1;container=0;fillColor=#ffff88;strokeColor=#36393d;" vertex="1" parent="1">
          <mxGeometry x="1010" y="620" width="40" height="40" as="geometry" />
        </mxCell>
        <mxCell id="A3wXZoz36PBpPaF0VSKz-47" value="d35" style="rounded=0;whiteSpace=wrap;html=1;container=0;fillColor=#ffff88;strokeColor=#36393d;" vertex="1" parent="1">
          <mxGeometry x="1010" y="580" width="40" height="40" as="geometry" />
        </mxCell>
        <mxCell id="A3wXZoz36PBpPaF0VSKz-48" value="d36" style="rounded=0;whiteSpace=wrap;html=1;container=0;fillColor=#cce5ff;strokeColor=#36393d;" vertex="1" parent="1">
          <mxGeometry x="1050" y="580" width="40" height="40" as="geometry" />
        </mxCell>
        <mxCell id="A3wXZoz36PBpPaF0VSKz-49" value="d37" style="rounded=0;whiteSpace=wrap;html=1;container=0;fillColor=#ffff88;strokeColor=#36393d;" vertex="1" parent="1">
          <mxGeometry x="1090" y="580" width="40" height="40" as="geometry" />
        </mxCell>
        <mxCell id="A3wXZoz36PBpPaF0VSKz-50" value="d5" style="rounded=0;whiteSpace=wrap;html=1;container=0;fillColor=#cce5ff;strokeColor=#36393d;" vertex="1" parent="1">
          <mxGeometry x="1210" y="380" width="40" height="40" as="geometry" />
        </mxCell>
        <mxCell id="A3wXZoz36PBpPaF0VSKz-51" value="d6" style="rounded=0;whiteSpace=wrap;html=1;container=0;fillColor=#cce5ff;strokeColor=#36393d;" vertex="1" parent="1">
          <mxGeometry x="1250" y="380" width="40" height="40" as="geometry" />
        </mxCell>
        <mxCell id="A3wXZoz36PBpPaF0VSKz-52" value="d13" style="rounded=0;whiteSpace=wrap;html=1;container=0;fillColor=#ffff88;strokeColor=#36393d;" vertex="1" parent="1">
          <mxGeometry x="1250" y="420" width="40" height="40" as="geometry" />
        </mxCell>
        <mxCell id="A3wXZoz36PBpPaF0VSKz-53" value="d12" style="rounded=0;whiteSpace=wrap;html=1;container=0;fillColor=#cce5ff;strokeColor=#36393d;" vertex="1" parent="1">
          <mxGeometry x="1210" y="420" width="40" height="40" as="geometry" />
        </mxCell>
        <mxCell id="A3wXZoz36PBpPaF0VSKz-54" value="d10" style="rounded=0;whiteSpace=wrap;html=1;container=0;fillColor=#cce5ff;strokeColor=#36393d;" vertex="1" parent="1">
          <mxGeometry x="1130" y="420" width="40" height="40" as="geometry" />
        </mxCell>
        <mxCell id="A3wXZoz36PBpPaF0VSKz-55" value="" style="endArrow=classic;html=1;rounded=0;" edge="1" parent="1">
          <mxGeometry width="50" height="50" relative="1" as="geometry">
            <mxPoint x="980" y="360" as="sourcePoint" />
            <mxPoint x="1260" y="360" as="targetPoint" />
          </mxGeometry>
        </mxCell>
        <mxCell id="A3wXZoz36PBpPaF0VSKz-56" value="" style="endArrow=classic;html=1;rounded=0;" edge="1" parent="1">
          <mxGeometry width="50" height="50" relative="1" as="geometry">
            <mxPoint x="1000" y="360" as="sourcePoint" />
            <mxPoint x="1000" y="670" as="targetPoint" />
          </mxGeometry>
        </mxCell>
        <mxCell id="A3wXZoz36PBpPaF0VSKz-57" value="0" style="text;html=1;align=center;verticalAlign=middle;whiteSpace=wrap;rounded=0;" vertex="1" parent="1">
          <mxGeometry x="990" y="320" width="60" height="30" as="geometry" />
        </mxCell>
        <mxCell id="A3wXZoz36PBpPaF0VSKz-58" value="1" style="text;html=1;align=center;verticalAlign=middle;whiteSpace=wrap;rounded=0;" vertex="1" parent="1">
          <mxGeometry x="1030" y="320" width="60" height="30" as="geometry" />
        </mxCell>
        <mxCell id="A3wXZoz36PBpPaF0VSKz-59" value="2" style="text;html=1;align=center;verticalAlign=middle;whiteSpace=wrap;rounded=0;" vertex="1" parent="1">
          <mxGeometry x="1070" y="320" width="60" height="30" as="geometry" />
        </mxCell>
        <mxCell id="A3wXZoz36PBpPaF0VSKz-60" value="3" style="text;html=1;align=center;verticalAlign=middle;whiteSpace=wrap;rounded=0;" vertex="1" parent="1">
          <mxGeometry x="1120" y="320" width="60" height="30" as="geometry" />
        </mxCell>
        <mxCell id="A3wXZoz36PBpPaF0VSKz-61" value="4" style="text;html=1;align=center;verticalAlign=middle;whiteSpace=wrap;rounded=0;" vertex="1" parent="1">
          <mxGeometry x="1170" y="320" width="60" height="30" as="geometry" />
        </mxCell>
        <mxCell id="A3wXZoz36PBpPaF0VSKz-62" value="5" style="text;html=1;align=center;verticalAlign=middle;whiteSpace=wrap;rounded=0;" vertex="1" parent="1">
          <mxGeometry x="1210" y="320" width="60" height="30" as="geometry" />
        </mxCell>
        <mxCell id="A3wXZoz36PBpPaF0VSKz-63" value="6" style="text;html=1;align=center;verticalAlign=middle;whiteSpace=wrap;rounded=0;" vertex="1" parent="1">
          <mxGeometry x="1250" y="320" width="60" height="30" as="geometry" />
        </mxCell>
      </root>
    </mxGraphModel>
  </diagram>
</mxfile>
